<svg id="Layer_1" data-name="Layer 1" xmlns="http://www.w3.org/2000/svg" viewBox="0 0 1024 1024"><defs><style>.cls-1{fill:#fff;}.cls-2{fill:none;}</style></defs><polygon class="cls-1" points="520.51 556.94 455.32 669.85 567.47 864.12 512.17 960.32 336.1 653.98 387.01 565.85 392.11 556.94 394.44 552.95 458.02 442.78 679.61 442.78 829.01 184.01 607.42 184.01 633.68 138.54 673.33 69.85 1024 69.85 744.04 556.94 520.51 556.94"/><line class="cls-2" x1="429.82" y1="566.76" x2="429.04" y2="565.43"/><polygon class="cls-1" points="587.98 144.74 155.42 145.24 156.41 171.38 571.12 174.12 316.04 619.12 228.1 466.15 275.75 383.08 318.52 461.62 437.44 254.15 159.6 255.71 133.42 301.37 0.35 69.85 630.9 69.85 587.98 144.74"/></svg>