<svg id="Layer_1" data-name="Layer 1" xmlns="http://www.w3.org/2000/svg" viewBox="0 0 1024 1024"><defs><style>.cls-1{fill:#262626;}.cls-2{fill:none;}</style></defs><polygon class="cls-1" points="520.34 554.96 455.13 667.9 567.31 862.23 512 958.47 335.86 652.03 386.8 563.87 391.9 554.96 394.22 550.96 457.83 440.76 679.49 440.76 828.95 181.9 607.28 181.9 633.55 136.41 673.21 67.7 1024 67.7 743.94 554.96 520.34 554.96"/><line class="cls-2" x1="429.82" y1="566.76" x2="429.04" y2="565.43"/><polygon class="cls-1" points="587.83 142.62 155.12 143.11 156.11 169.26 570.97 172 315.8 617.16 227.83 464.13 275.49 381.03 318.28 459.6 437.24 252.06 159.31 253.62 133.12 299.3 0 67.7 630.77 67.7 587.83 142.62"/></svg>